# xmcd
#
# Track frame offsets: 
#        182
#        36680
#        66427
#        95007
#        123982
#        145380
#        160887
#        182887
#        213825
#        235262
#        257030
#
# Disc length: 3809 seconds
#
# Revision: 0
# Processed by: cddbd v1.5.1PL0 Copyright (c) Steve Scherf et al.
# Submitted via: ExactAudioCopy v0.95a5
#
DISCID=a90edf0b
DTITLE=Philippe LeJeune  - Live At Blue Moon
DYEAR=1991
DGENRE=Blues
TTITLE0=Soul Food Jam
TTITLE1=Lady Be Good
TTITLE2=Blue And Sentimental
TTITLE3=Hot Spot Boogie Woogie
TTITLE4=Broadway
TTITLE5=Jitterburg Waltz
TTITLE6=Blues In My Heart
TTITLE7=I Remember Slim
TTITLE8=Girl Talk
TTITLE9=Blues For Two
TTITLE10=Blues After Midnight
EXTD=
EXTT0=
EXTT1=
EXTT2=
EXTT3=
EXTT4=
EXTT5=
EXTT6=
EXTT7=
EXTT8=
EXTT9=
EXTT10=
PLAYORDER=
